# Blender v2.79 (sub 4) OBJ File: 'ArcherGallery.blend'
# www.blender.org
mtllib ArcherGalleryCollision.mtl
g Wall1#IgnoreProjectiles
v 80.000000 189.000000 159.999924
v 80.000000 189.000000 399.999939
v 80.000000 0.000004 399.999939
v 80.000000 0.000004 159.999939
v 200.000000 276.521912 159.999924
v -200.000000 276.521912 159.999924
v 200.000000 0.000004 159.999939
v -200.000000 0.000004 159.999939
v 140.000000 40.000004 159.999924
v 140.000000 40.000008 129.999924
v -200.000000 40.000008 129.999924
v -200.000000 40.000004 159.999924
vc 1.000000 1.000000 1.000000 1.000000
vc 1.000000 1.000000 1.000000 1.000000
vc 1.000000 1.000000 1.000000 1.000000
vc 1.000000 1.000000 1.000000 1.000000
vc 1.000000 1.000000 1.000000 1.000000
vc 0.709804 0.709804 0.709804 1.000000
vc 0.709804 0.709804 0.709804 1.000000
vc 1.000000 1.000000 1.000000 1.000000
vc 0.709804 0.709804 0.709804 1.000000
vc 0.709804 0.709804 0.709804 1.000000
vc 0.709804 0.709804 0.709804 1.000000
vc 0.709804 0.709804 0.709804 1.000000
vt 1.329102 0.773251
vt -1.666992 0.773251
vt -1.666992 0.173641
vt 1.329102 0.173641
vt 1.570514 0.174734
vt 1.570514 0.774344
vt -4.098432 0.794851
vt -4.098432 0.195242
vt 2.863438 -0.964270
vt 2.863438 -0.522440
vt -2.143967 -0.522441
vt -2.143967 -0.964270
vn -1.000000 0.000000 0.000000
vn 0.000000 0.000000 1.000000
vn 0.000000 1.000000 0.000000
usemtl material.18946
s off
f 2/1/1 1/2/1 4/3/1
fc 1 2 3
f 2/1/1 4/3/1 3/4/1
fc 1 3 4
f 7/5/2 5/6/2 6/7/2
fc 5 6 7
f 7/5/2 6/7/2 8/8/2
fc 5 7 8
usemtl material.29635
f 9/9/3 10/10/3 11/11/3
fc 9 10 11
f 9/9/3 11/11/3 12/12/3
fc 9 11 12
g Door#Door
v -40.000000 0.000011 419.999939
v -40.000000 99.999985 420.000000
v 20.000000 99.999985 420.000000
v 20.000000 0.000011 419.999939
vc 0.650980 0.650980 0.650980 1.000000
vc 0.650980 0.650980 0.650980 1.000000
vc 0.650980 0.650980 0.650980 1.000000
vc 0.650980 0.650980 0.650980 1.000000
vt 0.524649 0.647736
vt 0.822517 1.144182
vt 0.524650 1.144182
vt 0.822517 0.647736
vn 0.000000 0.000000 -1.000000
usemtl material.18946_NONE
s off
f 14/13/4 16/14/4 13/15/4
fc 13 14 15
f 14/13/4 15/16/4 16/14/4
fc 13 16 14
g Exit0#Exit0
v -40.000000 0.000011 419.999939
v 20.000000 0.000011 419.999939
v -40.000000 0.000011 459.999939
v 20.000000 0.000011 459.999939
vc 0.650980 0.650980 0.650980 1.000000
vc 0.650980 0.650980 0.650980 1.000000
vc 0.650980 0.650980 0.650980 1.000000
vc 0.650980 0.650980 0.650980 1.000000
vt -5.016308 0.596013
vt -5.016308 -0.309721
vn 0.000000 1.000000 0.000000
usemtl material.18946_0x1CE40.png.001
s off
f 17/17/5 20/18/5 18/18/5
fc 17 18 19
f 17/17/5 19/17/5 20/18/5
fc 17 20 18
g Stone#Stone
v 22.219238 72.624397 -49.535599
v 14.560669 72.624359 -68.285873
v 14.560669 72.624397 -30.785294
v -4.189575 72.624382 -23.126724
v -22.939819 72.624397 -30.785294
v -30.598511 72.624397 -49.535599
v -22.939819 72.624390 -68.285873
v -4.189575 72.624405 -75.944443
v -4.189575 0.000011 -75.944489
v -22.939941 0.000011 -68.285919
v 14.560669 0.000011 -68.285919
v -4.189575 0.000004 -23.126740
v -30.598511 0.000008 -49.535614
v 22.219238 0.000008 -49.535614
v -22.939941 0.000004 -30.785309
v 14.560669 0.000004 -30.785309
v -152.170410 72.624344 26.321701
v -171.306030 72.624390 19.684097
v -143.153809 72.624382 44.458054
v -149.791382 72.624413 63.593613
v -167.927856 72.624397 72.610245
v -187.063354 72.624413 65.972641
v -196.079956 72.624382 47.836258
v -189.442383 72.624374 28.700699
v -189.442383 0.000011 28.700684
v -196.079956 0.000008 47.836243
v -171.306030 0.000011 19.684082
v -149.791382 0.000004 63.593628
v -187.063354 0.000004 65.972626
v -152.170410 0.000011 26.321686
v -167.927856 0.000004 72.610229
v -143.153809 0.000008 44.458069
v 200.000000 0.000008 -321.000000
v -200.000000 0.000011 399.999939
v -40.000000 0.000011 399.999939
v 40.000000 10.000010 219.999939
v 40.000000 10.000006 159.999939
v -80.000000 10.000006 159.999939
v -80.000000 10.000010 219.999939
v 40.000000 0.000004 159.999939
v 40.000000 0.000011 219.999939
v -80.000000 0.000011 219.999939
v -80.000000 0.000004 159.999939
v -60.000000 19.999996 199.999939
v 20.000000 19.999996 199.999939
v 20.000000 20.000002 159.999939
v -60.000000 20.000002 159.999939
v 20.000000 10.000000 199.999939
v -60.000000 10.000000 199.999939
v 20.000000 10.000006 159.999939
v -60.000000 10.000006 159.999939
v 200.000000 0.000000 -281.000000
v 200.000000 69.000015 -281.000000
v -200.000000 69.000015 -281.000000
v -200.000000 0.000000 -281.000000
v 200.000000 69.000008 -301.000000
v -200.000000 69.000008 -301.000000
v -140.000000 49.000008 -109.000046
v -140.000000 49.000004 -274.000000
v -180.000000 26.999996 -274.000000
v -180.000000 27.000000 -109.000046
v -140.000000 0.000000 -274.000000
v -140.000000 0.000004 -109.000061
v -180.000000 0.000004 -109.000061
v -180.000000 0.000000 -274.000000
v 181.000000 27.000004 -112.000046
v 181.000000 26.999998 -278.000000
v 181.000000 0.000000 -278.000000
v 181.000000 0.000004 -112.000061
v 141.000000 0.000004 -112.000061
v 141.000000 49.000008 -112.000046
v 141.000000 49.000004 -278.000000
v 141.000000 0.000000 -278.000000
v 57.000000 40.000008 -110.000046
v 57.000000 40.000004 -281.000000
v -56.000000 40.000004 -281.000000
v -56.000000 40.000008 -110.000046
v 57.000000 0.000000 -281.000000
v 57.000000 0.000004 -110.000061
v -56.000000 0.000004 -110.000061
v -56.000000 0.000000 -281.000000
v 200.000000 189.000000 399.999939
v -200.000000 189.000000 399.999939
v 260.000000 170.999985 -400.000000
v -200.000000 188.999969 -321.000061
v 260.000000 182.999985 -400.000000
v 0.000000 260.999969 -400.000061
v -200.000000 200.999969 -317.000061
v 200.000000 200.999985 -232.000076
v 0.000000 260.999969 399.999939
v 200.000000 201.000000 399.999939
v -200.000000 201.000000 399.999939
v -260.000000 182.999985 -400.000000
v -40.000000 99.999985 400.000000
v 20.000000 99.999985 400.000000
v 20.000000 0.000011 399.999939
v 200.000000 0.000011 399.999939
v 0.000000 249.000000 399.999939
v -260.000000 0.000004 -400.000000
v 0.000000 248.999985 -400.000061
v -260.000000 170.999985 -400.000000
v 260.000000 0.000004 -400.000000
v -200.000000 0.000008 -321.000000
v 200.000000 188.999969 -321.000061
v -40.000000 0.000011 419.999939
v -40.000000 99.999985 420.000000
v 20.000000 99.999985 420.000000
v 20.000000 0.000011 419.999939
v -40.000000 0.000011 459.999939
v -40.000000 99.999985 460.000000
v 20.000000 99.999985 460.000000
v 20.000000 0.000011 459.999939
vc 1.000000 1.000000 1.000000 1.000000
vc 1.000000 1.000000 1.000000 1.000000
vc 1.000000 1.000000 1.000000 1.000000
vc 1.000000 1.000000 1.000000 1.000000
vc 1.000000 1.000000 1.000000 1.000000
vc 1.000000 1.000000 1.000000 1.000000
vc 1.000000 1.000000 1.000000 1.000000
vc 1.000000 1.000000 1.000000 1.000000
vc 0.650980 0.650980 0.650980 1.000000
vc 0.568627 0.568627 0.568627 1.000000
vc 0.568627 0.568627 0.568627 1.000000
vc 1.000000 1.000000 1.000000 1.000000
vc 1.000000 1.000000 1.000000 1.000000
vc 0.650980 0.650980 0.650980 1.000000
vc 0.650980 0.650980 0.650980 1.000000
vc 0.650980 0.650980 0.650980 1.000000
vc 0.756863 0.756863 0.756863 1.000000
vc 1.000000 1.000000 1.000000 1.000000
vc 1.000000 1.000000 1.000000 1.000000
vc 1.000000 1.000000 1.000000 1.000000
vc 0.960784 0.960784 0.960784 1.000000
vc 0.823529 0.823529 0.823529 1.000000
vc 0.749020 0.749020 0.749020 1.000000
vc 0.623529 0.623529 0.623529 1.000000
vc 0.709804 0.709804 0.709804 1.000000
vc 0.709804 0.709804 0.709804 1.000000
vc 1.000000 1.000000 1.000000 1.000000
vc 0.709804 0.709804 0.709804 1.000000
vc 1.000000 1.000000 1.000000 1.000000
vc 0.749020 0.749020 0.749020 1.000000
vc 0.749020 0.749020 0.749020 1.000000
vc 0.749020 0.749020 0.749020 1.000000
vc 0.749020 0.749020 0.749020 1.000000
vc 0.749020 0.749020 0.749020 1.000000
vc 0.650980 0.650980 0.650980 1.000000
vc 0.650980 0.650980 0.650980 1.000000
vc 0.650980 0.650980 0.650980 1.000000
vc 0.650980 0.650980 0.650980 1.000000
vc 0.650980 0.650980 0.650980 1.000000
vc 0.650980 0.650980 0.650980 1.000000
vc 0.650980 0.650980 0.650980 1.000000
vc 0.650980 0.650980 0.650980 1.000000
vc 1.000000 1.000000 1.000000 1.000000
vc 1.000000 1.000000 1.000000 1.000000
vc 1.000000 1.000000 1.000000 1.000000
vc 1.000000 1.000000 1.000000 1.000000
vc 1.000000 1.000000 1.000000 1.000000
vc 1.000000 1.000000 1.000000 1.000000
vc 1.000000 1.000000 1.000000 1.000000
vc 1.000000 1.000000 1.000000 1.000000
vc 1.000000 1.000000 1.000000 1.000000
vc 1.000000 1.000000 1.000000 1.000000
vc 1.000000 1.000000 1.000000 1.000000
vc 1.000000 1.000000 1.000000 1.000000
vc 1.000000 1.000000 1.000000 1.000000
vc 1.000000 1.000000 1.000000 1.000000
vc 1.000000 1.000000 1.000000 1.000000
vc 1.000000 1.000000 1.000000 1.000000
vc 1.000000 1.000000 1.000000 1.000000
vc 1.000000 1.000000 1.000000 1.000000
vc 1.000000 1.000000 1.000000 1.000000
vc 1.000000 1.000000 1.000000 1.000000
vc 1.000000 1.000000 1.000000 1.000000
vc 1.000000 1.000000 1.000000 1.000000
vc 1.000000 1.000000 1.000000 1.000000
vc 1.000000 1.000000 1.000000 1.000000
vc 1.000000 1.000000 1.000000 1.000000
vc 1.000000 1.000000 1.000000 1.000000
vc 1.000000 1.000000 1.000000 1.000000
vc 1.000000 1.000000 1.000000 1.000000
vc 1.000000 1.000000 1.000000 1.000000
vc 1.000000 1.000000 1.000000 1.000000
vc 1.000000 1.000000 1.000000 1.000000
vc 1.000000 1.000000 1.000000 1.000000
vc 1.000000 1.000000 1.000000 1.000000
vc 0.768627 0.768627 0.768627 1.000000
vc 0.768627 0.768627 0.768627 1.000000
vc 1.000000 1.000000 1.000000 1.000000
vc 0.768627 0.768627 0.768627 1.000000
vc 0.768627 0.768627 0.768627 1.000000
vc 0.768627 0.768627 0.768627 1.000000
vc 0.768627 0.768627 0.768627 1.000000
vc 0.768627 0.768627 0.768627 1.000000
vc 1.000000 1.000000 1.000000 1.000000
vc 0.768627 0.768627 0.768627 1.000000
vc 1.000000 1.000000 1.000000 1.000000
vc 1.000000 1.000000 1.000000 1.000000
vc 0.984314 0.984314 0.984314 1.000000
vc 0.768627 0.768627 0.768627 1.000000
vc 0.784314 0.784314 0.784314 1.000000
vc 0.850980 0.850980 0.850980 1.000000
vc 0.768627 0.768627 0.768627 1.000000
vc 0.768627 0.768627 0.768627 1.000000
vc 0.768627 0.768627 0.768627 1.000000
vc 1.000000 1.000000 1.000000 1.000000
vc 0.768627 0.768627 0.768627 1.000000
vc 0.768627 0.768627 0.768627 1.000000
vc 0.768627 0.768627 0.768627 1.000000
vc 0.768627 0.768627 0.768627 1.000000
vc 0.913725 0.913725 0.913725 1.000000
vc 0.768627 0.768627 0.768627 1.000000
vc 1.000000 1.000000 1.000000 1.000000
vc 1.000000 1.000000 1.000000 1.000000
vc 1.000000 1.000000 1.000000 1.000000
vc 1.000000 1.000000 1.000000 1.000000
vc 1.000000 1.000000 1.000000 1.000000
vc 1.000000 1.000000 1.000000 1.000000
vc 1.000000 1.000000 1.000000 1.000000
vc 1.000000 1.000000 1.000000 1.000000
vc 1.000000 1.000000 1.000000 1.000000
vc 1.000000 1.000000 1.000000 1.000000
vc 1.000000 1.000000 1.000000 1.000000
vt 1.249894 -0.912411
vt 1.249894 -0.162517
vt -0.249894 -0.162517
vt -0.249894 -0.912411
vt 0.000071 -0.787429
vt 0.999929 -0.787429
vt 0.999929 -0.287500
vt 0.000071 -0.287500
vt -5.016308 -0.309721
vt 5.867488 -3.026897
vt 5.867489 3.011271
vt -5.016308 -3.026897
vt -5.016305 3.011277
vt -5.016308 0.596013
vt 1.629113 1.015724
vt -1.446747 -0.000508
vt 2.446747 -0.000508
vt 2.446747 1.320594
vt -1.446747 1.015724
vt -1.446747 -1.016739
vt 2.042797 -1.016739
vt 2.446747 -1.321608
vt 1.311530 1.123422
vt 0.003907 -0.128879
vt 1.311530 0.263408
vt -1.303717 1.123422
vt -1.303717 0.263408
vt -0.269665 0.205899
vt -3.849040 1.144182
vt -3.849040 0.205899
vt -4.341524 0.295259
vt 5.295497 1.144182
vt 5.295498 0.205899
vt 5.787981 0.295259
vt 0.723228 -0.091969
vt 1.716120 0.205899
vt 0.822517 0.647736
vt 1.716120 1.144182
vt 0.822517 1.144182
vt 0.524649 0.647736
vt 0.524650 1.144182
vt -0.269665 1.144182
vt 5.787981 1.144182
vt -4.341524 1.144182
vt 0.984375 -0.481445
vt 0.483887 -0.981445
vt -0.015625 -0.481445
vt 0.130371 -0.834961
vt 0.483887 0.018066
vt 0.837891 -0.834961
vt 0.837891 -0.127930
vt 0.130371 -0.127930
vt 0.240723 -0.991943
vt 0.241699 0.007812
vt 0.491211 0.007812
vt 0.712402 -0.993652
vt 0.712402 0.006104
vt 0.992188 0.007812
vt 0.248291 0.007812
vt 0.501465 -0.991943
vt 0.245361 -0.991943
vt -0.008545 -0.991943
vt -0.007812 0.007812
vt 0.707031 -0.992432
vt 0.707031 0.007324
vt 0.514404 -0.994629
vt 0.514404 0.005127
vt -0.010498 -0.991943
vt 0.992188 -0.992188
vt 0.505615 0.007080
vt 0.505615 -0.992676
vt 0.490234 -0.991943
vt 0.504394 0.007812
vt 1.999875 -0.023625
vt 1.999875 0.493832
vt -0.999875 0.493832
vt -0.999875 -0.023625
vt -0.999891 0.537717
vt -0.999891 0.140448
vt 0.337849 0.140448
vt 0.337849 0.537717
vt 0.662150 0.537717
vt 0.662150 0.318813
vt 1.999891 0.318813
vt 1.999891 0.537717
vt -0.999891 0.443281
vt -0.999891 0.225555
vt 0.338720 0.225555
vt 0.338720 0.443281
vt 0.661277 0.443281
vt 0.661277 0.048148
vt 1.999891 0.048148
vt 1.999891 0.443281
vt -1.499881 0.436825
vt -1.499881 0.085197
vt 0.003325 0.085197
vt 0.003325 0.436825
vt 0.996673 0.436824
vt 0.996673 0.085197
vt 2.499882 0.085196
vt 2.499882 0.436824
vt 5.435791 0.336670
vt 4.935791 1.114502
vt 4.935791 0.336670
vt 5.435791 0.836670
vt 1.923096 0.336670
vt 1.923096 0.950439
vt 1.423096 0.336670
vt 1.423096 0.672607
vt 5.376343 1.009033
vt 5.376343 1.295166
vt 2.882202 1.295166
vt 2.882202 1.009033
vt 0.000053 0.310092
vt 0.999947 0.310092
vt 0.999947 0.586735
vt 0.000053 0.586735
vt 0.000053 0.316292
vt 0.999948 0.316292
vt 0.999948 0.591269
vt 0.000052 0.591269
vt 0.000081 0.006530
vt 0.999919 0.006530
vt 0.999919 1.001587
vt 0.000081 1.001587
vt 1.999023 -0.016502
vt 1.995117 0.316506
vt -0.001953 0.295022
vt 0.000977 -0.037986
vt 2.103516 -0.037986
vt 2.103516 0.312600
vt 0.000000 0.312600
vt 0.000000 -0.037986
vt 2.913086 -0.084861
vt 2.916992 0.312600
vt -1.853516 0.358498
vt -1.857422 -0.038963
vt 2.295898 -0.015409
vt 2.293945 0.270724
vt 0.000977 0.258029
vt 0.001953 -0.029081
vt 1.549805 -0.023221
vt 1.550781 0.372287
vt -0.031250 0.375216
vt -0.032227 -0.020292
vt 1.612305 -0.023221
vt 1.612305 0.380099
vt 0.001953 0.380099
vt 0.001953 -0.023221
vn 0.000000 1.000000 -0.000000
vn -0.287300 -0.957800 0.000000
vn 0.287300 -0.957800 0.000000
vn 0.000000 0.000000 1.000000
vn 1.000000 0.000000 0.000000
vn 0.796400 -0.000000 -0.604800
vn -0.796400 -0.000000 -0.604800
vn 0.000000 -0.000000 -1.000000
vn -1.000000 0.000000 0.000000
vn 0.000000 -1.000000 0.000000
vn 0.378100 0.000000 -0.925800
vn 0.925800 -0.000000 0.378100
vn -0.378100 0.000000 0.925800
vn 0.925800 0.000000 -0.378100
vn -0.925800 0.000000 -0.378100
vn 0.378100 -0.000000 0.925800
vn -0.925800 -0.000000 0.378100
vn -0.378100 0.000000 -0.925800
vn -0.445200 0.000000 -0.895400
vn 0.895400 0.000000 -0.445200
vn 0.445200 -0.000000 0.895400
vn 0.327700 0.000000 -0.944800
vn -0.895400 0.000000 0.445200
vn 0.944800 0.000000 0.327700
vn -0.327700 -0.000000 0.944800
vn -0.944800 0.000000 -0.327700
vn -0.481900 0.876200 0.000000
vn 0.481900 0.876200 -0.000000
usemtl material.18946_0x20.png.001
s off
f 56/19/6 57/20/6 58/21/6
fc 21 22 23
f 56/19/6 58/21/6 59/22/6
fc 21 23 24
f 64/23/6 65/24/6 66/25/6
fc 25 26 27
f 64/23/6 66/25/6 67/26/6
fc 25 27 28
usemtl material.18946_0x1CE40.png.001
f 116/27/6 53/28/6 123/29/6
fc 29 30 31
f 116/27/6 117/30/6 53/28/6
fc 29 32 30
f 123/29/6 54/31/6 55/32/6
fc 31 33 34
f 123/29/6 55/32/6 116/27/6
fc 31 34 29
f 55/32/6 128/27/6 116/27/6
fc 34 35 29
f 55/32/6 125/32/6 128/27/6
fc 34 36 35
usemtl material.18946_0x6960.png.001
f 109/33/7 110/34/7 107/35/7
fc 37 38 39
f 107/35/7 106/36/7 109/33/7
fc 39 40 37
f 109/33/7 111/37/7 110/34/7
fc 37 41 38
f 110/34/8 112/38/8 108/39/8
fc 38 42 43
f 107/35/8 110/34/8 108/39/8
fc 39 38 43
f 108/39/8 113/40/8 107/35/8
fc 43 44 39
usemtl material.18946_0x7DC0.png.001
f 119/41/9 120/42/9 121/43/9
fc 45 46 47
f 119/41/9 122/44/9 120/42/9
fc 45 48 46
f 122/44/9 104/45/9 120/42/9
fc 48 49 46
usemtl material.18946_0x8E00.png.001
f 103/46/10 123/47/10 105/48/10
fc 50 31 51
f 123/47/11 121/49/11 105/48/11
fc 31 47 51
f 53/50/12 124/51/12 104/52/12
fc 30 52 49
f 118/53/13 102/54/13 115/55/13
fc 53 54 55
f 53/50/14 117/56/14 102/54/14
fc 30 32 54
f 117/56/13 116/57/13 115/55/13
fc 32 29 55
f 53/50/14 102/54/14 124/51/14
fc 30 54 52
f 114/58/13 55/59/13 54/60/13
fc 56 34 33
f 54/60/13 103/46/13 114/58/13
fc 33 50 56
f 102/54/13 117/56/13 115/55/13
fc 54 32 55
f 103/46/10 54/60/10 123/47/10
fc 50 33 31
f 114/58/13 118/53/13 115/55/13
fc 56 53 55
f 53/50/12 104/52/12 122/61/12
fc 30 49 48
f 123/47/11 119/62/11 121/49/11
fc 31 45 47
f 103/46/13 118/53/13 114/58/13
fc 50 53 56
f 115/55/14 128/57/14 127/55/14
fc 55 35 57
f 115/55/15 126/58/15 114/58/15
fc 55 58 56
f 114/58/10 125/59/10 55/59/10
fc 56 36 34
f 127/55/14 132/57/14 131/55/14
fc 57 59 60
f 126/58/10 129/59/10 125/59/10
fc 58 61 36
f 127/55/15 130/58/15 126/58/15
fc 57 62 58
f 129/32/13 131/55/13 132/27/13
fc 61 60 59
f 115/55/14 116/57/14 128/57/14
fc 55 29 35
f 115/55/15 127/55/15 126/58/15
fc 55 57 58
f 114/58/10 126/58/10 125/59/10
fc 56 58 36
f 127/55/14 128/57/14 132/57/14
fc 57 35 59
f 126/58/10 130/58/10 129/59/10
fc 58 62 61
f 127/55/15 131/55/15 130/58/15
fc 57 60 62
f 129/32/13 130/58/13 131/55/13
fc 61 62 60
usemtl material.18946_12819762.png.001
f 26/63/6 24/64/6 21/65/6
fc 63 64 65
f 24/64/6 23/66/6 21/65/6
fc 64 66 65
f 21/65/6 28/67/6 26/63/6
fc 65 67 63
f 26/63/6 25/68/6 24/64/6
fc 63 68 64
f 28/67/6 27/69/6 26/63/6
fc 67 69 63
f 21/65/6 22/70/6 28/67/6
fc 65 70 67
f 42/63/6 40/64/6 37/65/6
fc 71 72 73
f 40/64/6 39/66/6 37/65/6
fc 72 74 73
f 37/65/6 44/67/6 42/63/6
fc 73 75 71
f 42/63/6 41/68/6 40/64/6
fc 71 76 72
f 44/67/6 43/69/6 42/63/6
fc 75 77 71
f 37/65/6 38/70/6 44/67/6
fc 73 78 75
usemtl material.18946_48268995_-_Copy.png.001
f 22/71/16 31/72/16 29/73/16
fc 70 79 80
f 23/74/17 36/75/17 34/76/17
fc 66 81 82
f 35/77/18 24/78/18 25/79/18
fc 83 64 68
f 21/80/19 34/81/19 31/72/19
fc 65 82 79
f 27/82/20 30/83/20 33/76/20
fc 69 84 85
f 36/75/21 24/84/21 32/85/21
fc 81 64 86
f 25/79/22 26/86/22 33/81/22
fc 68 63 85
f 25/79/22 33/81/22 35/77/22
fc 68 85 83
f 36/75/21 23/74/21 24/84/21
fc 81 66 64
f 23/74/17 34/76/17 21/87/17
fc 66 82 65
f 21/80/19 31/72/19 22/71/19
fc 65 79 70
f 29/88/23 30/83/23 27/82/23
fc 80 84 69
f 29/88/23 27/82/23 28/89/23
fc 80 69 67
f 27/82/20 33/76/20 26/87/20
fc 69 85 63
f 22/71/16 29/73/16 28/90/16
fc 70 80 67
f 35/77/18 32/91/18 24/78/18
fc 83 86 64
f 38/71/24 47/72/24 45/73/24
fc 78 87 88
f 39/74/25 52/75/25 50/76/25
fc 74 89 90
f 51/77/26 40/78/26 41/79/26
fc 91 72 76
f 37/80/27 50/81/27 47/72/27
fc 73 90 87
f 43/82/28 46/83/28 49/76/28
fc 77 92 93
f 52/75/29 40/84/29 48/85/29
fc 89 72 94
f 41/79/30 42/86/30 49/81/30
fc 76 71 93
f 41/79/30 49/81/30 51/77/30
fc 76 93 91
f 52/75/29 39/74/29 40/84/29
fc 89 74 72
f 39/74/25 50/76/25 37/87/25
fc 74 90 73
f 37/80/27 47/72/27 38/71/27
fc 73 87 78
f 45/88/31 46/83/31 43/82/31
fc 88 92 77
f 45/88/31 43/82/31 44/89/31
fc 88 77 75
f 43/82/28 49/76/28 42/87/28
fc 77 93 71
f 38/71/24 45/73/24 44/90/24
fc 78 88 75
f 51/77/26 48/91/26 40/78/26
fc 91 94 72
usemtl material.18946_0x10660.png.001
f 72/92/9 73/93/9 74/94/9
fc 95 96 97
f 72/92/9 74/94/9 75/95/9
fc 95 97 98
f 82/96/10 79/97/10 78/98/10
fc 99 100 101
f 82/96/10 78/98/10 83/99/10
fc 99 101 102
f 84/100/14 81/101/14 80/102/14
fc 103 104 105
f 84/100/14 80/102/14 85/103/14
fc 103 105 106
f 83/99/9 78/98/9 81/101/9
fc 102 101 104
f 83/99/9 81/101/9 84/100/9
fc 102 104 103
f 88/104/10 87/105/10 86/106/10
fc 107 108 109
f 88/104/10 86/106/10 89/107/10
fc 107 109 110
f 90/108/14 91/109/14 92/110/14
fc 111 112 113
f 90/108/14 92/110/14 93/111/14
fc 111 113 114
f 89/107/9 86/106/9 91/109/9
fc 110 109 112
f 89/107/9 91/109/9 90/108/9
fc 110 112 111
f 98/112/10 95/113/10 94/114/10
fc 115 116 117
f 98/112/10 94/114/10 99/115/10
fc 115 117 118
f 100/116/14 97/117/14 96/118/14
fc 119 120 121
f 100/116/14 96/118/14 101/119/14
fc 119 121 122
f 99/115/9 94/114/9 97/117/9
fc 118 117 120
f 99/115/9 97/117/9 100/116/9
fc 118 120 119
f 88/120/9 92/121/9 93/122/9
fc 107 113 114
f 88/120/9 87/123/9 92/121/9
fc 107 108 113
f 82/124/9 79/125/9 85/126/9
fc 99 100 106
f 79/125/9 80/127/9 85/126/9
fc 100 105 106
usemtl material.18946_0x132E0.png.001
f 73/128/6 76/129/6 77/130/6
fc 96 123 124
f 73/128/6 77/130/6 74/131/6
fc 96 124 97
f 78/132/32 79/133/32 80/134/32
fc 101 100 105
f 78/132/32 80/134/32 81/135/32
fc 101 105 104
f 86/136/33 87/137/33 92/138/33
fc 109 108 113
f 86/136/33 92/138/33 91/139/33
fc 109 113 112
f 94/140/6 95/141/6 96/142/6
fc 117 116 121
f 94/140/6 96/142/6 97/143/6
fc 117 121 120
usemtl material.18946
f 60/144/10 57/145/10 56/146/10
fc 125 22 21
f 60/144/10 56/146/10 61/147/10
fc 125 21 126
f 62/148/14 59/149/14 58/150/14
fc 127 24 23
f 62/148/14 58/150/14 63/151/14
fc 127 23 128
f 61/152/9 56/153/9 59/154/9
fc 126 21 24
f 61/152/9 59/154/9 62/155/9
fc 126 24 127
f 68/156/9 65/157/9 64/158/9
fc 129 26 25
f 68/156/9 64/158/9 69/159/9
fc 129 25 130
f 70/160/10 66/161/10 65/162/10
fc 131 27 26
f 70/160/10 65/162/10 68/163/10
fc 131 26 129
f 69/164/14 64/165/14 67/166/14
fc 130 25 28
f 69/164/14 67/166/14 71/167/14
fc 130 28 132
